<svg width="184" height="184" viewBox="0 0 184 184" fill="none" xmlns="http://www.w3.org/2000/svg">
<rect width="184" height="184" rx="30" fill="#272727"/>
<g clip-path="url(#clip0_1206_100827)">
<path d="M67 151V84.2548C67 70.8593 77.8593 60 91.2548 60V60C116.849 60 124.994 94.5029 102.102 105.949L90 112" stroke="white" stroke-width="15" stroke-linecap="round"/>
<path d="M90.4874 112.69L121.583 146.361C124.902 149.956 129.572 152 134.465 152V152C144.149 152 152 144.149 152 134.465V62C152 45.4315 138.569 32 122 32H62C45.4315 32 32 45.4315 32 62V122C32 138.569 45.4315 152 62 152H66" stroke="white" stroke-width="15" stroke-linecap="round" stroke-linejoin="round"/>
</g>
<defs>
<clipPath id="clip0_1206_100827">
<rect width="135" height="136" fill="white" transform="translate(24 24)"/>
</clipPath>
</defs>
</svg>
