<svg width="135" height="136" viewBox="0 0 135 136" fill="none" xmlns="http://www.w3.org/2000/svg">
<g clip-path="url(#clip0_1206_100822)">
<path d="M43 127V60.2548C43 46.8593 53.8593 36 67.2548 36V36C92.8491 36 100.994 70.5029 78.102 81.949L66 88" stroke="#272727" stroke-width="15" stroke-linecap="round"/>
<path d="M66.4874 88.6897L97.5828 122.361C100.902 125.956 105.572 128 110.465 128V128C120.149 128 128 120.149 128 110.465V38C128 21.4315 114.569 8 98 8H38C21.4315 8 8 21.4315 8 38V98C8 114.569 21.4315 128 38 128H42" stroke="#272727" stroke-width="15" stroke-linecap="round" stroke-linejoin="round"/>
</g>
<defs>
<clipPath id="clip0_1206_100822">
<rect width="135" height="136" fill="white"/>
</clipPath>
</defs>
</svg>
