<svg width="24" height="24" viewBox="0 0 24 24" fill="none" xmlns="http://www.w3.org/2000/svg">
<g clip-path="url(#clip0_1727_102841)">
<path d="M16.0571 11.73C17.3043 10.8686 18.1786 9.45429 18.1786 8.14286C18.1786 5.23714 15.9286 3 13.0357 3H5V21H14.0514C16.7386 21 18.8214 18.8143 18.8214 16.1271C18.8214 14.1729 17.7157 12.5014 16.0571 11.73ZM8.85714 6.21429H12.7143C13.7814 6.21429 14.6429 7.07571 14.6429 8.14286C14.6429 9.21 13.7814 10.0714 12.7143 10.0714H8.85714V6.21429ZM13.3571 17.7857H8.85714V13.9286H13.3571C14.4243 13.9286 15.2857 14.79 15.2857 15.8571C15.2857 16.9243 14.4243 17.7857 13.3571 17.7857Z" fill="black"/>
</g>
<defs>
<clipPath id="clip0_1727_102841">
<rect width="24" height="24" fill="white"/>
</clipPath>
</defs>
</svg>
