<svg viewBox="0 0 50 50" xmlns="http://www.w3.org/2000/svg" fill='#000'>
<path d="M25 12.5C25 11.3542 24.0625 10.4167 22.9167 10.4167H12.125L13.5 3.79167L13.5417 3.3125C13.5417 2.66667 13.2708 2.08333 12.8542 1.64583L11.2083 0L0.916667 10.2917C0.354167 10.8542 0 11.6458 0 12.5V26.0417C0 27.7708 1.39583 29.1667 3.125 29.1667H17.1875C18.4792 29.1667 19.5833 28.375 20.0625 27.2708L24.7708 16.25C24.9167 15.8958 25 15.5 25 15.1042V12.5ZM46.875 20.8333H32.8125C31.5208 20.8333 30.4167 21.625 29.9375 22.7292L25.2292 33.75C25.0833 34.1042 25 34.5 25 34.8958V37.5C25 38.6458 25.9375 39.5833 27.0833 39.5833H37.875L36.5 46.2083L36.4583 46.7083C36.4583 47.3542 36.7292 47.9375 37.1458 48.375L38.7917 50L49.0833 39.7083C49.6458 39.1458 50 38.3542 50 37.5V23.9583C50 22.2292 48.6042 20.8333 46.875 20.8333Z"/>
</svg>
